<svg xmlns="http://www.w3.org/2000/svg" viewBox="0 0 405.18 114.69"><defs><style>.cls-1,.cls-2{isolation:isolate;}.cls-2{font-size:93.24px;font-family:DaysOne-Regular, Days One;}.cls-2,.cls-5{fill:#1d1d1b;}.cls-3{letter-spacing:-0.02em;}.cls-4{fill:#5eb5a2;}</style></defs><g id="Calque_2" data-name="Calque 2"><g id="Calque_1-2" data-name="Calque 1"><g id="Logo"><g id="Groupe_41" data-name="Groupe 41"><g id="Web" class="cls-1"><text class="cls-2" transform="translate(0 88.88)"><tspan class="cls-3">W</tspan><tspan x="102.17" y="0">eb</tspan></text></g></g><g id="Groupe_42" data-name="Groupe 42"><path id="Tracé_21" data-name="Tracé 21" class="cls-4" d="M308,16.51V108.3a5.42,5.42,0,0,0,9.25,3.83l86.37-86.38a5.42,5.42,0,0,0-3.83-9.25H308"/><path class="cls-5" d="M297.83,102.21h0a7.9,7.9,0,0,1-7.9-7.92V25.4a2.5,2.5,0,1,1,5,0V94.29a2.9,2.9,0,0,0,2.91,2.92h0a2.89,2.89,0,0,0,2.06-.85L386.27,10a2.92,2.92,0,0,0-2.06-5H224.37a2.5,2.5,0,0,1,0-5H384.21a7.92,7.92,0,0,1,7.91,7.91,7.82,7.82,0,0,1-2.31,5.6L303.43,99.89A7.83,7.83,0,0,1,297.83,102.21Z"/></g></g></g></g></svg>